<svg xmlns="http://www.w3.org/2000/svg" width="113" height="106" viewBox="0 0 113 106" fill="none">
    <path d="M53.4167 38.7344L67.2709 14.9844C73.2743 16.5677 78.6023 19.4705 83.2546 23.6927C87.907 27.9149 91.2874 32.9288 93.3959 38.7344H53.4167ZM42.4323 48.6302L28.875 24.8802C32.4375 21.3837 36.578 18.6128 41.2963 16.5677C46.0146 14.5226 51.1103 13.5 56.5834 13.5C57.441 13.5 58.4306 13.5501 59.5521 13.6504C60.6737 13.7507 61.6962 13.8655 62.6198 13.9948L42.4323 48.6302ZM18.2865 62.9792C17.8907 61.3958 17.5766 59.7795 17.3444 58.1302C17.1122 56.4809 16.9974 54.7986 17 53.0833C17 48.3993 17.7587 43.9792 19.2761 39.8229C20.7934 35.6667 22.9375 31.8733 25.7084 28.4427L45.698 62.9792H18.2865ZM45.9948 91.1823C39.9914 89.599 34.6476 86.6962 29.9636 82.474C25.2796 78.2517 21.882 73.2379 19.7709 67.4323H59.6511L45.9948 91.1823ZM56.5834 92.6667C55.5938 92.6667 54.5871 92.6007 53.5632 92.4688C52.5393 92.3368 51.5668 92.2049 50.6459 92.0729L70.7344 57.5365L84.2917 81.2865C80.7292 84.783 76.5888 87.5538 71.8705 89.599C67.1521 91.6441 62.0564 92.6667 56.5834 92.6667ZM87.4584 77.724L67.4688 43.1875H94.8802C95.2761 44.7708 95.5901 46.3872 95.8223 48.0365C96.0546 49.6858 96.1693 51.3681 96.1667 53.0833C96.1667 57.7014 95.3579 62.1215 93.7402 66.3438C92.1226 70.566 90.0286 74.3594 87.4584 77.724Z" fill="#2F324D"/>
    </svg>