<svg xmlns="http://www.w3.org/2000/svg" width="18" height="18" viewBox="0 0 18 18" fill="none">
    <path fill-rule="evenodd" clip-rule="evenodd"
        d="M0 9C-1.76116e-08 10.1819 0.232792 11.3522 0.685084 12.4442C1.13738 13.5361 1.80031 14.5282 2.63604 15.364C3.47177 16.1997 4.46392 16.8626 5.55585 17.3149C6.64778 17.7672 7.8181 18 9 18C10.1819 18 11.3522 17.7672 12.4442 17.3149C13.5361 16.8626 14.5282 16.1997 15.364 15.364C16.1997 14.5282 16.8626 13.5361 17.3149 12.4442C17.7672 11.3522 18 10.1819 18 9C18 6.61305 17.0518 4.32387 15.364 2.63604C13.6761 0.948212 11.3869 0 9 0C6.61305 0 4.32387 0.948212 2.63604 2.63604C0.948212 4.32387 3.55683e-08 6.61305 0 9ZM16.9412 9C16.9412 11.1061 16.1045 13.126 14.6153 14.6153C13.126 16.1045 11.1061 16.9412 9 16.9412C6.89387 16.9412 4.874 16.1045 3.38474 14.6153C1.89548 13.126 1.05882 11.1061 1.05882 9C1.05882 6.89387 1.89548 4.874 3.38474 3.38474C4.874 1.89548 6.89387 1.05882 9 1.05882C11.1061 1.05882 13.126 1.89548 14.6153 3.38474C16.1045 4.874 16.9412 6.89387 16.9412 9Z"
        fill="#2F324D" />
    <path fill-rule="evenodd" clip-rule="evenodd"
        d="M5.29395 9.00184C5.29395 13.6564 6.82077 17.4724 8.99983 17.4724C11.1789 17.4724 12.7057 13.6564 12.7057 9.00184C12.7057 4.34725 11.1789 0.53125 8.99983 0.53125C6.82077 0.53125 5.29395 4.34725 5.29395 9.00184ZM11.6469 9.00184C11.6469 13.1196 10.3287 16.4136 8.99983 16.4136C7.671 16.4136 6.35277 13.1196 6.35277 9.00184C6.35277 4.88407 7.671 1.59007 8.99983 1.59007C10.3287 1.59007 11.6469 4.88407 11.6469 9.00184Z"
        fill="#2F324D" />
    <path
        d="M2.36636 4.03565L3.07577 3.25C3.18906 3.35165 3.30977 3.45118 3.43894 3.54753C4.83447 4.59365 7.03683 5.23106 9.43718 5.23106C11.4839 5.23106 13.394 4.76835 14.7895 3.97106C15.1111 3.78913 15.4149 3.5775 15.6969 3.33894L16.3852 4.14365C16.0696 4.41365 15.7118 4.66247 15.3158 4.88906C13.7519 5.78376 11.6607 6.28988 9.43718 6.28988C6.82188 6.28988 4.39506 5.58788 2.80365 4.39459C2.65243 4.28137 2.50652 4.1623 2.36636 4.03565ZM2.36636 13.9759L3.07577 14.7594C3.18906 14.6578 3.30977 14.5582 3.43894 14.4629C4.83447 13.4168 7.03683 12.7794 9.43718 12.7794C11.4839 12.7794 13.394 13.2411 14.7895 14.0394C15.1294 14.2342 15.4333 14.446 15.6969 14.6705L16.3852 13.8658C16.0528 13.5844 15.6947 13.3349 15.3158 13.1204C13.7519 12.2267 11.6607 11.7206 9.43718 11.7206C6.82188 11.7206 4.39506 12.4226 2.80365 13.6148C2.64906 13.7313 2.50294 13.852 2.36636 13.9759ZM0.529297 9.52882V8.47H17.4705V9.52882H0.529297Z"
        fill="#2F324D" />
</svg>