<svg xmlns="http://www.w3.org/2000/svg" width="24" height="24" viewBox="0 0 24 24" fill="none">
    <path
        d="M20 8.81252C20 8.22423 19.5523 7.74727 19 7.74727H17.293C17.7348 7.28309 18.0175 6.67458 18.0175 5.92517C18.0175 5.0024 17.52 4 16.1235 4C14.286 4 12.751 6.08415 12.0298 7.25246C11.308 6.08442 9.726 4.00027 7.88875 4.00027C6.49225 4.00027 5.99475 5.00266 5.99475 5.92543C5.99475 6.67457 6.28525 7.28336 6.736 7.74754H5C4.44775 7.74754 4 8.2245 4 8.81278V12.0013H5.00875V18.9348C5.00875 19.523 5.45648 20 6.00875 20H18.0038C18.556 20 19.0038 19.523 19.0038 18.9348V12.0011H20V8.81252H20ZM16.1235 5.06551C16.7418 5.06551 17.0175 5.34223 17.0175 5.92545C17.0175 7.10867 15.7778 7.747 14.6118 7.747H12.919C13.6295 6.6229 14.88 5.06551 16.1235 5.06551ZM7.88873 5.06553C9.13248 5.06553 10.4302 6.62292 11.1407 7.74675H9.44747C8.28147 7.74675 6.99472 7.09189 6.99472 5.90867C6.99472 5.32572 7.27047 5.06553 7.88873 5.06553ZM19 10.9358H12.5V8.81252H19V10.9358ZM4.99998 8.81252H11.5V10.9358H4.99998V8.81252ZM6.00873 12.0011H11.5V18.9345H6.00873V12.0011ZM18.004 18.9345H12.5V12.0011H18.004V18.9345Z"
        fill="#2F324D" />
</svg>