<svg width="97" height="36" viewBox="0 0 97 36" fill="none" xmlns="http://www.w3.org/2000/svg">
<g clip-path="url(#clip0_15_1374)">
<path d="M51.7267 0.76337L66.2166 4.51588C67.8915 4.94961 68.8577 6.50706 68.3679 7.99994L60.0502 33.3549C59.562 34.8429 57.8037 35.7 56.1289 35.2663L41.639 31.5138C39.9642 31.08 38.998 29.5226 39.4877 28.0297L47.8054 2.67479C48.2936 1.18671 50.0519 0.329635 51.7267 0.76337Z" fill="#E23D66"/>
<path d="M43.4328 11.17C42.3749 10.22 41.0018 9.74502 39.3079 9.74502C37.9798 9.74502 36.8318 10.025 35.8582 10.575C34.8903 11.13 34.215 11.865 33.8492 12.785H33.6635C33.3709 11.85 32.7913 11.11 31.919 10.565C31.0468 10.02 29.9888 9.74502 28.7451 9.74502C27.5015 9.74502 26.466 10.015 25.5825 10.56C24.7046 11.105 24.0743 11.845 23.6973 12.785H23.4834V10.005H18.7057C18.5594 9.07002 18.2049 8.23002 17.6252 7.48002C16.8768 6.51002 15.8357 5.75502 14.4964 5.21002C13.157 4.66502 11.587 4.39502 9.79743 4.39502C8.00789 4.39502 6.46034 4.66502 5.08161 5.21002C3.69725 5.75502 2.61115 6.51002 1.81767 7.48002C1.0242 8.45002 0.635904 9.58002 0.647159 10.875C0.641532 12.455 1.22679 13.715 2.40293 14.65C3.5847 15.585 5.18853 16.27 7.22567 16.71L9.8537 17.295C10.7316 17.485 11.48 17.69 12.0878 17.92C12.6956 18.15 13.1627 18.43 13.4778 18.755C13.7986 19.085 13.9561 19.485 13.9561 19.97C13.9561 20.485 13.7817 20.94 13.4271 21.34C13.0726 21.74 12.5774 22.05 11.9359 22.27C11.2943 22.495 10.5403 22.605 9.67925 22.605C8.81825 22.605 8.00789 22.485 7.31571 22.245C6.61791 22.005 6.06641 21.645 5.64998 21.17C5.23918 20.695 5.00282 20.095 4.94655 19.375H0C0.0393923 20.915 0.461453 22.205 1.27181 23.25C2.07654 24.29 3.20203 25.075 4.64266 25.605C6.0833 26.135 7.78279 26.4 9.7299 26.4C11.677 26.4 13.3765 26.135 14.7721 25.61C16.1677 25.085 17.2369 24.34 17.9798 23.385C18.278 23.005 18.5088 22.595 18.6888 22.155V26.01H23.7142V16.37C23.7142 15.78 23.8436 15.26 24.1025 14.82C24.3613 14.38 24.7159 14.035 25.1604 13.785C25.605 13.54 26.1058 13.415 26.663 13.415C27.4902 13.415 28.1542 13.65 28.6607 14.115C29.1672 14.58 29.4204 15.21 29.4204 15.995V26.01H34.2938V16.205C34.2938 15.37 34.547 14.695 35.0591 14.18C35.5712 13.665 36.2803 13.41 37.192 13.41C37.9911 13.41 38.6607 13.635 39.1953 14.08C39.7299 14.525 40.0001 15.195 40.0001 16.085V26.005H45.0141V15.21C45.0141 13.47 44.4852 12.12 43.4272 11.17H43.4328ZM18.5594 17.605C18.1992 16.915 17.6984 16.315 17.0569 15.81C16.4097 15.3 15.65 14.875 14.7665 14.525C13.883 14.175 12.9207 13.895 11.8627 13.69L9.69051 13.23C9.16152 13.125 8.66631 13 8.20485 12.85C7.73777 12.7 7.33259 12.525 6.97806 12.315C6.62353 12.11 6.34779 11.865 6.1452 11.58C5.94261 11.295 5.85257 10.96 5.86945 10.575C5.86945 10.115 6.02139 9.70502 6.32528 9.34002C6.62916 8.98002 7.0681 8.69502 7.64211 8.49002C8.21611 8.28502 8.91954 8.18002 9.75241 8.18002C10.9792 8.18002 11.9527 8.41502 12.6674 8.88002C13.3821 9.34502 13.7873 10 13.883 10.845H18.6945V17.905C18.6494 17.805 18.61 17.7 18.565 17.605H18.5594Z" fill="white"/>
<path d="M90.6418 9.99986H85.684L80.7375 22.6099C80.6137 22.6299 80.4561 22.6549 80.2479 22.6899C80.0115 22.7299 79.7808 22.7449 79.5445 22.7449C79.2068 22.7449 78.9142 22.6999 78.6609 22.6099C78.4077 22.5199 78.2107 22.3649 78.0701 22.1399C77.9294 21.9149 77.8618 21.5999 77.8618 21.1949V13.3199H81.5647V10.0049H77.8618V6.35986H72.8815V10.0049H72.0262C71.4128 10.0199 70.2873 10.1549 69.6345 10.4849C68.6722 10.9649 69.6345 10.4849 68.0757 11.2799H67.8843V10.0099H63.0278V26.0049H68.0363V16.9499C68.0363 16.2949 68.177 15.9499 68.509 15.4499C68.841 14.9499 69.4994 14.3999 70.0734 14.1199C70.6474 13.8399 71.0188 13.6049 71.7335 13.4449C72.0824 13.3699 72.4989 13.3549 72.8815 13.3399V21.7699C72.8759 22.8149 73.1179 23.6749 73.6187 24.3599C74.1196 25.0449 74.8174 25.5499 75.7178 25.8699C76.6182 26.1949 77.6705 26.3349 78.8692 26.2949C79.5163 26.2749 80.0678 26.2199 80.518 26.1249C80.7262 26.0799 80.9176 26.0399 81.0808 26.0049H83.5287L84.8793 22.3549H91.4466L92.7915 26.0049H96.9108L90.6418 9.99986ZM85.8529 19.7149L88.0926 13.6549H88.2333L90.4674 19.7149H85.8529Z" fill="white"/>
<path d="M51.7167 26.305C50.4955 26.305 49.4094 26.125 48.4584 25.765C47.5017 25.405 46.7532 24.865 46.2018 24.15C45.6503 23.435 45.3745 22.545 45.3745 21.48C45.3745 20.58 45.5658 19.825 45.9598 19.215C46.3481 18.605 46.8827 18.11 47.5523 17.74C48.2276 17.37 48.9874 17.085 49.8484 16.895C50.7094 16.705 51.6098 16.57 52.5552 16.495C53.6694 16.395 54.5642 16.305 55.2451 16.215C55.926 16.125 56.4212 15.995 56.7251 15.82C57.0346 15.645 57.1866 15.385 57.1866 15.04V14.975C57.1866 14.31 56.939 13.79 56.4438 13.425C55.9485 13.06 55.2507 12.88 54.3503 12.88C53.3937 12.88 52.6396 13.06 52.0712 13.41C51.5085 13.765 51.1314 14.21 50.9513 14.745L46.0498 14.41C46.303 13.425 46.787 12.575 47.5186 11.855C48.2502 11.135 49.1899 10.58 50.3492 10.19C51.5085 9.79998 52.8478 9.60498 54.3728 9.60498C55.4308 9.60498 56.4494 9.70998 57.4229 9.91998C58.3965 10.13 59.2631 10.455 60.0228 10.9C60.7825 11.34 61.379 11.91 61.818 12.6C62.2626 13.29 62.4764 14.12 62.4764 15.085V26.005H57.4511V23.76H57.2991C56.9952 24.265 56.5844 24.71 56.0667 25.095C55.5546 25.48 54.9356 25.775 54.2153 25.99C53.495 26.205 52.6621 26.31 51.7167 26.31V26.305ZM53.2305 23.205C54.0127 23.205 54.6992 23.075 55.2957 22.81C55.8923 22.545 56.3593 22.19 56.7026 21.74C57.0403 21.29 57.2147 20.78 57.2147 20.21V18.49C57.0515 18.58 56.8208 18.665 56.5338 18.74C56.2468 18.815 55.926 18.88 55.5715 18.94C55.217 19 54.8568 19.05 54.5023 19.1C54.1421 19.145 53.8214 19.185 53.5287 19.22C52.9097 19.295 52.3638 19.42 51.9024 19.59C51.4353 19.76 51.0751 19.985 50.8219 20.27C50.563 20.555 50.4392 20.91 50.4392 21.33C50.4392 21.94 50.7037 22.405 51.2271 22.725C51.7504 23.045 52.4201 23.205 53.2361 23.205H53.2305Z" fill="white"/>
</g>
<defs>
<clipPath id="clip0_15_1374">
<rect width="96.7925" height="36" fill="white"/>
</clipPath>
</defs>
</svg>
