<svg xmlns="http://www.w3.org/2000/svg" width="19" height="15" viewBox="0 0 19 15" fill="none">
    <path
        d="M18 2.96154V12.1154C18 12.6356 17.7933 13.1345 17.4255 13.5024C17.0576 13.8703 16.5587 14.0769 16.0385 14.0769H2.96154C2.44131 14.0769 1.94238 13.8703 1.57452 13.5024C1.20666 13.1345 1 12.6356 1 12.1154V2.96154M18 2.96154C18 2.44131 17.7933 1.94238 17.4255 1.57452C17.0576 1.20666 16.5587 1 16.0385 1H2.96154C2.44131 1 1.94238 1.20666 1.57452 1.57452C1.20666 1.94238 1 2.44131 1 2.96154M18 2.96154V3.17338C18 3.50828 17.9143 3.83761 17.751 4.13C17.5878 4.42239 17.3523 4.66811 17.0672 4.84374L10.5287 8.86708C10.2194 9.05759 9.86327 9.15847 9.5 9.15847C9.13673 9.15847 8.78059 9.05759 8.47128 8.86708L1.93282 4.84462C1.64767 4.66898 1.41225 4.42327 1.24896 4.13087C1.08567 3.83848 0.999963 3.50915 1 3.17426V2.96154"
        stroke="#2F324D" stroke-width="1.3" stroke-linecap="round" stroke-linejoin="round" />
</svg>