<svg width="315" height="111" viewBox="0 0 315 111" fill="none" xmlns="http://www.w3.org/2000/svg">
<g opacity="0.7" clip-path="url(#clip0_92_15467)">
<g opacity="0.3">
<path d="M235.875 78.5614C235.875 39.1071 203.818 7.12109 164.276 7.12109L164.276 150.002C203.818 150.002 235.875 118.016 235.875 78.5614Z" fill="#C0C2CC"/>
<path opacity="0.9" d="M79.9868 37.8744C79.9868 58.7919 96.9815 75.7489 117.946 75.7489C138.91 75.7489 155.904 58.7919 155.904 37.8744C155.904 16.957 138.91 -7.42862e-07 117.946 -1.65923e-06C96.9815 -2.5756e-06 79.9868 16.957 79.9868 37.8744Z" fill="#C0C2CC"/>
<path d="M151.588 149.999C151.588 110.545 119.531 78.5586 79.9886 78.5586L79.9886 149.999L151.588 149.999Z" fill="#C0C2CC"/>
<path d="M0.000294423 143.828L0.000297546 72.3672L71.5996 72.3672C71.5996 111.821 39.5424 143.808 0.000294424 143.807L0.000294423 143.828Z" fill="#C0C2CC"/>
<path d="M0.000297546 1.3164L0.000294424 72.7567L71.5996 72.7567C71.5996 33.3025 39.5424 1.3164 0.000297546 1.3164Z" fill="#C0C2CC"/>
<path opacity="0.9" d="M315 7.10156L315 78.5624L243.401 78.5624C243.401 39.0876 275.458 7.10156 315 7.10156Z" fill="#C0C2CC"/>
</g>
<path d="M315 149.999L315 78.5586L243.401 78.5586C243.401 118.013 275.458 149.999 315 149.999Z" fill="#C0C2CC"/>
</g>
<defs>
<clipPath id="clip0_92_15467">
<rect width="150" height="315" fill="white" transform="translate(315) rotate(90)"/>
</clipPath>
</defs>
</svg>
