<svg xmlns="http://www.w3.org/2000/svg" width="18" height="18" viewBox="0 0 18 18" fill="none">
    <path
        d="M16.7727 14.4286L17.261 14.9197L16.7718 14.4286H16.7727ZM5.13752 12.4387L5.62486 11.9476L5.1366 12.4387H5.13752ZM1.32927 2.66234L0.841927 2.17223L1.33019 2.66326L1.32927 2.66234ZM12.3479 11.667L12.7697 11.2489L11.7923 10.2669L11.3732 10.685L12.3479 11.667ZM14.181 11.0735L15.9448 12.0325L16.6048 10.816L14.8418 9.85797L14.181 11.0735ZM16.2836 13.9376L14.9729 15.2418L15.9485 16.2229L17.2592 14.9197L16.2836 13.9376ZM14.1736 15.6608C12.8353 15.7863 9.37405 15.6747 5.62486 11.9476L4.64834 12.9288C8.73903 16.9964 12.6331 17.1957 14.3028 17.0398L14.1727 15.6608H14.1736ZM5.62486 11.9476C2.05197 8.39411 1.45941 5.40639 1.38557 4.10959L0.00292904 4.18804C0.0952281 5.81989 0.829006 9.13158 4.64834 12.9288L5.62486 11.9476ZM6.89397 6.24354L7.15887 5.97957L6.18419 4.99843L5.9193 5.26148L6.8949 6.24262L6.89397 6.24354ZM7.36931 2.6245L6.20635 1.07018L5.09784 1.90087L6.2608 3.45426L7.36931 2.6245ZM2.29194 0.731444L0.84285 2.17131L1.81937 3.15337L3.26755 1.71351L2.29194 0.731444ZM6.40664 5.75251C5.91745 5.26148 5.91745 5.26148 5.91745 5.26333H5.91561L5.91284 5.26702C5.86926 5.31149 5.83001 5.36002 5.79562 5.41193C5.74577 5.48577 5.69132 5.58268 5.64517 5.70544C5.53278 6.02232 5.50478 6.36299 5.56395 6.69396C5.68763 7.49235 6.23773 8.54733 7.64621 9.94842L8.62274 8.96636C7.30378 7.65572 6.98997 6.85825 6.93182 6.48167C6.90413 6.30261 6.93274 6.21401 6.94105 6.1937C6.94566 6.18078 6.94751 6.17985 6.94105 6.18816C6.93291 6.20096 6.92364 6.21301 6.91336 6.22416L6.90413 6.23339C6.90114 6.23626 6.89807 6.23903 6.8949 6.24169L6.40571 5.75251H6.40664ZM7.64621 9.94842C9.05562 11.3495 10.1161 11.8959 10.9154 12.0178C11.3243 12.0805 11.6538 12.0307 11.904 11.9375C12.0438 11.8857 12.1747 11.8122 12.2916 11.7196C12.3075 11.7064 12.3229 11.6925 12.3378 11.6781L12.3442 11.6726L12.347 11.6698L12.3479 11.668C12.3479 11.668 12.3488 11.667 11.8606 11.176C11.3714 10.685 11.3742 10.684 11.3742 10.684L11.376 10.6822L11.3779 10.6804L11.3834 10.6757L11.3926 10.6665C11.4037 10.6565 11.4154 10.6473 11.4277 10.6388C11.4369 10.6324 11.4342 10.6351 11.4212 10.6407C11.3982 10.649 11.3077 10.6776 11.1259 10.6499C10.7438 10.5908 9.94077 10.277 8.62274 8.96636L7.64621 9.94842ZM6.20635 1.06926C5.2649 -0.186009 3.41522 -0.385375 2.29194 0.731444L3.26755 1.71351C3.75858 1.22524 4.62988 1.27601 5.09784 1.90087L6.20542 1.06926H6.20635ZM1.38649 4.11051C1.36803 3.79116 1.51479 3.45703 1.81937 3.15429L0.841927 2.17223C0.346282 2.66511 -0.0441435 3.36289 0.00292904 4.18804L1.38649 4.11051ZM14.9729 15.2418C14.72 15.4947 14.4468 15.6368 14.1745 15.6617L14.3028 17.0398C14.9812 16.9761 15.5359 16.6346 15.9494 16.2238L14.9729 15.2418ZM7.15887 5.97957C8.06802 5.07596 8.1354 3.64809 7.37024 2.62542L6.26173 3.45519C6.63369 3.95268 6.57831 4.60523 6.18327 4.99935L7.15887 5.97957ZM15.9457 12.0335C16.6998 12.4433 16.817 13.4087 16.2845 13.9385L17.261 14.9197C18.4978 13.6893 18.1166 11.6375 16.6057 10.817L15.9457 12.0335ZM12.7697 11.2498C13.1242 10.8973 13.6946 10.8105 14.1819 11.0745L14.8428 9.85889C13.8422 9.31433 12.6017 9.46478 11.7932 10.2678L12.7697 11.2498Z"
        fill="#2F324D" />
</svg>