<svg width="24" height="24" viewBox="0 0 24 24" fill="none" xmlns="http://www.w3.org/2000/svg">
<path fill-rule="evenodd" clip-rule="evenodd" d="M12.0002 12.9252C13.008 12.9252 13.9746 12.5248 14.6872 11.8122C15.3998 11.0996 15.8002 10.133 15.8002 9.1252C15.8002 8.11737 15.3998 7.15083 14.6872 6.43819C13.9746 5.72555 13.008 5.3252 12.0002 5.3252C10.9924 5.3252 10.0258 5.72555 9.31319 6.43819C8.60055 7.15083 8.2002 8.11737 8.2002 9.1252C8.2002 10.133 8.60055 11.0996 9.31319 11.8122C10.0258 12.5248 10.9924 12.9252 12.0002 12.9252ZM12.0002 11.9752C12.3745 11.9752 12.7451 11.9015 13.0908 11.7583C13.4366 11.615 13.7508 11.4051 14.0155 11.1405C14.2801 10.8758 14.49 10.5616 14.6333 10.2158C14.7765 9.87007 14.8502 9.49946 14.8502 9.1252C14.8502 8.75093 14.7765 8.38033 14.6333 8.03455C14.49 7.68877 14.2801 7.37459 14.0155 7.10994C13.7508 6.84529 13.4366 6.63536 13.0908 6.49214C12.7451 6.34891 12.3745 6.2752 12.0002 6.2752C11.2443 6.2752 10.5194 6.57546 9.98494 7.10994C9.45046 7.64442 9.1502 8.36933 9.1502 9.1252C9.1502 9.88106 9.45046 10.606 9.98494 11.1405C10.5194 11.6749 11.2443 11.9752 12.0002 11.9752Z" fill="white"/>
<path fill-rule="evenodd" clip-rule="evenodd" d="M21.5 11.5C21.5 16.7469 17.2469 21 12 21C6.75315 21 2.5 16.7469 2.5 11.5C2.5 6.25315 6.75315 2 12 2C17.2469 2 21.5 6.25315 21.5 11.5ZM16.5743 18.7247C15.2067 19.5928 13.6198 20.0526 12 20.05C10.3414 20.0527 8.71811 19.5706 7.3298 18.663C7.2158 18.5205 7.10037 18.3733 6.98305 18.2213C6.84745 18.0431 6.77433 17.8253 6.775 17.6014C6.775 17.0898 7.14265 16.6609 7.63427 16.5892C10.8856 16.1142 13.1243 16.155 16.38 16.6058C16.6157 16.64 16.8312 16.7583 16.9865 16.9389C17.1418 17.1196 17.2265 17.3503 17.225 17.5886C17.225 17.8166 17.1466 18.0379 17.0051 18.2108C16.8592 18.3884 16.7153 18.5599 16.5743 18.7247ZM18.1679 17.4213C18.0919 16.5321 17.4169 15.7902 16.5101 15.6648C13.1775 15.2036 10.8481 15.1594 7.497 15.6491C6.585 15.7821 5.91287 16.5307 5.83308 17.4223C4.30135 15.8316 3.44698 13.7083 3.45 11.5C3.45 6.77803 7.27803 2.95 12 2.95C16.722 2.95 20.55 6.77803 20.55 11.5C20.553 13.7078 19.699 15.8307 18.1679 17.4213Z" fill="white"/>
</svg>
