<svg xmlns="http://www.w3.org/2000/svg" width="61" height="91" viewBox="0 0 61 91" fill="none">
    <path
        d="M30.365 90.5C21.7781 90.5 14.4874 87.8241 9.19487 82.6906C3.90234 77.5571 0.5 68.9831 0.5 59.0984C0.5 39.056 28.3128 2.46638 29.5009 0.937257C29.5984 0.798293 29.7282 0.68574 29.8789 0.609544C30.0296 0.533347 30.1966 0.495851 30.365 0.500364C30.5186 0.505261 30.6696 0.541671 30.8088 0.607385C30.9481 0.6731 31.0727 0.766748 31.1751 0.882643C32.3632 2.41176 60.5 38.2369 60.5 59.0984C60.498 67.3434 57.3438 75.2684 51.6971 81.2161C48.948 84.1432 45.6398 86.4753 41.973 88.0712C38.3061 89.667 34.357 90.4933 30.365 90.5ZM30.365 3.39477C25.6125 9.7297 2.66022 41.6774 2.66022 59.0984C2.66022 76.5195 13.2453 88.3155 30.365 88.3155C34.0658 88.3057 37.726 87.5358 41.1237 86.0526C44.5214 84.5693 47.5858 82.4037 50.131 79.6869C55.4049 74.1609 58.3484 66.7783 58.3398 59.0984C58.3398 50.7975 53.3713 38.4007 43.9743 23.1641C38.2498 13.8802 32.4712 6.17996 30.365 3.39477Z"
        fill="#2F324D" />
    <path
        d="M28.0872 82.6732H27.9721C6.84886 80.6502 7.02153 59.2394 7.02153 59.0146C7.04918 58.716 7.18701 58.4374 7.40936 58.2306C7.6317 58.0239 7.92342 57.9031 8.23021 57.8906C8.38404 57.8898 8.53632 57.9207 8.67711 57.9812C8.81789 58.0418 8.94401 58.1306 9.04722 58.242C9.15042 58.3534 9.22841 58.4848 9.27606 58.6276C9.32372 58.7704 9.33998 58.9214 9.32379 59.0708C9.40264 62.5575 10.185 65.9949 11.626 69.1861C14.6765 75.8735 20.2595 79.6948 28.2023 80.4816C28.3493 80.4875 28.4933 80.524 28.6247 80.5885C28.7562 80.653 28.8721 80.7441 28.9646 80.8558C29.0572 80.9674 29.1243 81.0971 29.1616 81.236C29.1989 81.375 29.2054 81.5201 29.1808 81.6617C29.166 81.935 29.0443 82.1924 28.8408 82.3806C28.6373 82.5689 28.3675 82.6736 28.0872 82.6732Z"
        fill="#2F324D" />
</svg>