<svg width="24" height="24" viewBox="0 0 24 24" fill="none" xmlns="http://www.w3.org/2000/svg">
<path d="M9.80157 17.6031C5.4807 17.6031 2 14.1224 2 9.80157C2 5.4807 5.4807 2 9.80157 2C14.1224 2 17.6031 5.4807 17.6031 9.80157C17.6031 14.1224 14.1224 17.6031 9.80157 17.6031ZM9.80157 3.20024C6.14083 3.20024 3.20024 6.14083 3.20024 9.80157C3.20024 13.4623 6.14083 16.4029 9.80157 16.4029C13.4623 16.4029 16.4029 13.4623 16.4029 9.80157C16.4029 6.14083 13.4623 3.20024 9.80157 3.20024Z" fill="white"/>
<path d="M15.6122 14.7622L20.577 19.727C20.8114 19.9613 20.8114 20.3412 20.577 20.5756C20.3427 20.8099 19.9628 20.8099 19.7285 20.5756L14.7637 15.6108L15.6122 14.7622Z" fill="white"/>
</svg>
